<svg id="Layer_1" xmlns="http://www.w3.org/2000/svg" viewBox="0 0 57.55 66.78"><style>.st0{fill-rule:evenodd;clip-rule:evenodd;fill:#fff}</style><path class="st0" d="M24.35 17.02h-1.7v10.01h1.7c1.04 0 1.54-.5 1.54-1.59v-6.83c0-1.08-.5-1.59-1.54-1.59z"/><path class="st0" d="M52.32 0H5.23C1.41 0 0 1.41 0 5.23v46.08c0 .43.02.83.06 1.21.09.83.1 1.64.88 2.56.08.09.87.68.87.68.43.21.72.36 1.2.56l23.19 9.72c1.2.55 1.71.77 2.58.75.87.02 1.38-.2 2.58-.75l23.19-9.72c.48-.19.77-.35 1.2-.56 0 0 .79-.59.87-.68.78-.92.79-1.73.88-2.56.04-.37.06-.77.06-1.21V5.23C57.55 1.41 56.14 0 52.32 0zm-41.1 52.14h35.11l-17.92 5.91-17.19-5.91zm5.3-11.59H7.25V13.38h9.19v3.76h-5.06v7.69h4.87v3.76h-4.87v8.19h5.14v3.77zm13.51-14.91c0 3.38-1.66 5.05-5.02 5.05h-2.36v9.86h-4.13V13.38H25c3.36 0 5.02 1.67 5.02 5.05v7.21zm5.99 14.91h-4.13V13.38h4.13v27.17zm14.28-4.82c0 3.38-1.66 5.05-5.02 5.05h-2.05c-3.36 0-5.02-1.67-5.02-5.05V18.19c0-3.38 1.66-5.05 5.02-5.05h2.01c3.36 0 4.98 1.63 4.98 5.01v5.55h-4.06v-5.32c0-1.09-.5-1.59-1.55-1.59h-.7c-1.08 0-1.58.5-1.58 1.59v17.16c0 1.09.5 1.59 1.58 1.59h.77c1.04 0 1.54-.5 1.54-1.59v-6.13h4.06v6.32z"/></svg>