<svg width="52" height="40" viewBox="0 0 52 40" xmlns="http://www.w3.org/2000/svg"><title>PS4</title><path d="M51.365 30.614c-1.012 1.278-3.493 2.189-3.493 2.189l-18.45 6.627v-4.887L43 29.705c1.541-.553 1.778-1.333.525-1.743-1.25-.41-3.514-.293-5.056.262l-9.047 3.186v-5.072l.521-.177s2.615-.925 6.29-1.332c3.677-.405 8.179.055 11.712 1.395 3.983 1.258 4.431 3.113 3.42 4.39zM31.178 9.793c0-1.468-.27-2.82-1.648-3.202-1.055-.338-1.71.641-1.71 2.108V40l-8.44-2.68V0c3.588.666 8.817 2.241 11.628 3.189 7.15 2.454 9.573 5.51 9.573 12.392 0 6.709-4.141 9.251-9.403 6.71V9.794zM.985 29.099c1.722-1.276 4.65-2.236 4.65-2.236l12.104-4.304v4.907l-8.71 3.117c-1.538.552-1.775 1.333-.524 1.743 1.25.41 3.516.293 5.057-.26l4.177-1.516v4.39c-.264.046-.56.094-.833.14-4.179.682-8.63.397-13.016-1.048-4.088-1.151-4.769-3.55-2.905-4.933zm47.691 6.876c.529 0 1.025.205 1.398.583.373.372.579.869.579 1.396 0 .53-.206 1.024-.58 1.396-.372.376-.868.58-1.397.58a1.956 1.956 0 0 1-1.397-.58 1.98 1.98 0 0 1 1.397-3.375zm-1.161 3.14zm2.084-1.686a.605.605 0 0 1-.086.336.583.583 0 0 1-.166.16c.052.03.098.067.132.11a.504.504 0 0 1 .078.291l.01.281a.722.722 0 0 0 .02.169c.012.052.035.085.063.095l.03.014v.129h-.427l-.014-.025a.387.387 0 0 1-.028-.086 1.336 1.336 0 0 1-.015-.172l-.018-.35c-.005-.12-.046-.196-.124-.236a.612.612 0 0 0-.236-.033h-.6v.902h-.381v-2.201h1.022a.99.99 0 0 1 .415.076c.217.095.326.279.326.54zm-1.38.346h.61c.122 0 .22-.022.289-.068.063-.046.094-.13.094-.25 0-.133-.044-.219-.135-.265a.487.487 0 0 0-.211-.038h-.647v.621z" fill="#FFF" fill-rule="evenodd"/></svg>