<svg width="41" height="40" viewBox="0 0 41 40" xmlns="http://www.w3.org/2000/svg"><title>XBOX</title><path d="M20.243 6.273c-2.396-1.482-6.322-3.409-10.6-3.283-.01.005-.029-.006-.038 0-.646.388-1.267.815-1.862 1.273A20.289 20.289 0 0 1 20.23 0c11.172 0 20.23 8.954 20.23 20 0 4.688-1.632 8.999-4.364 12.409.786-7.153-7.782-17.59-10.43-20.803.08-.131.163-.263.247-.396 1.759-2.342 4.967-5.17 8.166-5.78a20.389 20.389 0 0 0-3.236-2.44c-.01-.006-.029.005-.038 0-4.262-.126-8.172 1.8-10.56 3.283zm-.009 9.956c-.784.63-1.511 1.247-2.226 1.852v-.001C12.8 22.672 6.144 28.749 6.222 34.43A20.283 20.283 0 0 0 20.229 40a20.283 20.283 0 0 0 13.984-5.548c.074-5.685-6.558-11.764-11.746-16.36v.002c-.717-.61-1.446-1.23-2.233-1.865zM6.371 5.429C2.45 9.079 0 14.257 0 20c0 4.67 1.62 8.967 4.333 12.37-.776-7.146 7.81-17.563 10.466-20.771-.08-.131-.163-.263-.248-.396-1.762-2.337-4.975-5.158-8.18-5.773z" fill="#FFF" fill-rule="evenodd"/></svg>