<svg width="40" height="40" viewBox="0 0 40 40" xmlns="http://www.w3.org/2000/svg"><title>STEAM</title><path d="M.817 25.833C3.303 34.033 10.894 40 19.872 40c10.998 0 19.914-8.955 19.914-20 0-11.046-8.916-20-19.914-20C9.318 0 .682 8.245 0 18.671l.009.015v-.003l10.7 4.424a5.41 5.41 0 0 1 .933-.494 5.439 5.439 0 0 1 2.333-.414l4.873-7.11c-.002-.03-.002-.064-.002-.098 0-4.196 3.393-7.609 7.564-7.609 4.173 0 7.564 3.413 7.564 7.609 0 4.195-3.391 7.612-7.564 7.612-.056 0-.114-.002-.17-.004l-6.974 5.004a5.592 5.592 0 0 1-.425 2.285c-1.17 2.824-4.41 4.169-7.221 2.99a5.535 5.535 0 0 1-3.262-3.92l-7.54-3.125zm16.86 3.564c-.905 2.182-3.402 3.218-5.572 2.31a4.244 4.244 0 0 1-2.193-2.102l2.462 1.025c1.6.67 3.437-.093 4.102-1.7a3.16 3.16 0 0 0-1.69-4.125l-2.545-1.06a4.239 4.239 0 0 1 5.442 2.373 4.282 4.282 0 0 1-.006 3.28zm8.733-9.335c-2.778 0-5.04-2.275-5.04-5.071 0-2.794 2.262-5.07 5.04-5.07 2.78 0 5.041 2.276 5.041 5.07 0 2.796-2.261 5.07-5.04 5.07zm-3.776-5.079c0-2.103 1.696-3.81 3.785-3.81 2.09 0 3.786 1.707 3.786 3.81 0 2.104-1.696 3.808-3.786 3.808s-3.785-1.704-3.785-3.808z" fill="#FFF" fill-rule="evenodd"/></svg>